<?xml version="1.0" encoding="UTF-8" standalone="no"?>
<!-- Generator: Adobe Illustrator 23.0.3, SVG Export Plug-In . SVG Version: 6.00 Build 0)  -->

<svg
   xmlns:dc="http://purl.org/dc/elements/1.1/"
   xmlns:cc="http://creativecommons.org/ns#"
   xmlns:rdf="http://www.w3.org/1999/02/22-rdf-syntax-ns#"
   xmlns:svg="http://www.w3.org/2000/svg"
   xmlns="http://www.w3.org/2000/svg"
   xmlns:sodipodi="http://sodipodi.sourceforge.net/DTD/sodipodi-0.dtd"
   xmlns:inkscape="http://www.inkscape.org/namespaces/inkscape"
   version="1.1"
   id="Layer_1"
   x="0px"
   y="0px"
   viewBox="0 0 41.976322 24.911627"
   xml:space="preserve"
   sodipodi:docname="twitter.svg"
   width="41.976322"
   height="24.911627"
   inkscape:version="0.92.4 (5da689c313, 2019-01-14)"><metadata
   id="metadata29"><rdf:RDF><cc:Work
       rdf:about=""><dc:format>image/svg+xml</dc:format><dc:type
         rdf:resource="http://purl.org/dc/dcmitype/StillImage" /><dc:title></dc:title></cc:Work></rdf:RDF></metadata><defs
   id="defs27" /><sodipodi:namedview
   pagecolor="#ffffff"
   bordercolor="#666666"
   borderopacity="1"
   objecttolerance="10"
   gridtolerance="10"
   guidetolerance="10"
   inkscape:pageopacity="0"
   inkscape:pageshadow="2"
   inkscape:window-width="3022"
   inkscape:window-height="1764"
   id="namedview25"
   showgrid="false"
   fit-margin-top="0"
   fit-margin-left="0"
   fit-margin-right="0"
   fit-margin-bottom="0"
   inkscape:zoom="1.1919192"
   inkscape:cx="227.38682"
   inkscape:cy="102.33111"
   inkscape:window-x="304"
   inkscape:window-y="142"
   inkscape:window-maximized="0"
   inkscape:current-layer="g22" />
<style
   type="text/css"
   id="style2">
	.st0{fill:#40C5E9;}
	.st1{fill:#FFFFFF;}
</style>
<g
   id="g22"
   transform="translate(-284.99866,-384.01)">
	<path
   class="st0"
   d="m 315.39,385.81 c -0.69,0.31 -1.44,0.51 -2.21,0.61 0.8,-0.48 1.41,-1.23 1.7,-2.13 -0.75,0.44 -1.57,0.76 -2.45,0.94 -0.7,-0.75 -1.71,-1.22 -2.82,-1.22 -2.13,0 -3.86,1.73 -3.86,3.86 0,0.3 0.03,0.6 0.1,0.88 -3.21,-0.16 -6.05,-1.7 -7.95,-4.03 -0.33,0.57 -0.52,1.23 -0.52,1.94 0,1.34 0.68,2.52 1.72,3.21 -0.63,-0.02 -1.23,-0.19 -1.75,-0.48 0,0.02 0,0.03 0,0.05 0,1.87 1.33,3.43 3.09,3.78 -0.32,0.09 -0.66,0.14 -1.02,0.14 -0.25,0 -0.49,-0.02 -0.73,-0.07 0.49,1.53 1.92,2.65 3.6,2.68 -1.32,1.03 -2.98,1.65 -4.79,1.65 -0.31,0 -0.62,-0.02 -0.92,-0.05 1.71,1.09 3.73,1.73 5.91,1.73 7.09,0 10.97,-5.88 10.97,-10.97 0,-0.17 0,-0.33 -0.01,-0.5 0.77,-0.57 1.42,-1.25 1.94,-2.02 z"
   id="path4"
   inkscape:connector-curvature="0"
   style="fill:#40c5e9" />
	<path
   class="st0"
   d="m 285.85,400.71 c 0.52,-0.15 1.13,0.22 1.21,0.76 0.04,0.42 0.04,0.85 0.04,1.27 1.07,0.01 2.14,-0.04 3.21,0.01 0.4,0.06 0.77,0.39 0.82,0.8 0.16,0.52 -0.25,1.14 -0.78,1.22 -1.09,0.09 -2.18,0.02 -3.28,0.04 0.01,0.4 -0.01,0.8 0.04,1.2 0.07,0.38 0.39,0.73 0.79,0.77 0.82,0.07 1.65,0 2.46,0.06 0.71,0.11 1.06,1.08 0.58,1.61 -0.26,0.46 -0.83,0.44 -1.28,0.44 -0.83,-0.01 -1.69,0.1 -2.5,-0.15 -1.22,-0.37 -2.15,-1.58 -2.14,-2.86 -0.04,-1.31 -0.01,-2.63 -0.01,-3.94 -0.08,-0.53 0.27,-1.15 0.84,-1.23 z"
   id="path6"
   inkscape:connector-curvature="0"
   style="fill:#40c5e9" />
	<path
   class="st0"
   d="m 304.72,400.96 c 0.47,-0.5 1.41,-0.31 1.65,0.33 0.11,0.76 0.05,1.53 0.06,2.3 0.72,0.01 1.45,-0.03 2.17,0.06 0.49,0.11 0.89,0.62 0.79,1.14 -0.01,0.51 -0.52,0.95 -1.04,0.87 -0.62,0.04 -1.23,0.02 -1.85,0.03 0.07,0.34 0.09,0.84 0.47,1.01 0.67,0.26 1.47,-0.06 2.1,0.34 0.24,0.29 0.41,0.65 0.31,1.02 -0.1,0.54 -0.65,0.87 -1.17,0.83 -1.25,0.15 -2.77,-0.22 -3.3,-1.5 -0.63,-1.55 -0.57,-3.29 -0.57,-4.94 0.04,-0.49 -0.07,-1.14 0.38,-1.49 z"
   id="path8"
   inkscape:connector-curvature="0"
   style="fill:#40c5e9" />
	<path
   class="st0"
   d="m 310.44,400.77 c 0.28,-0.11 0.6,-0.14 0.87,0.02 0.23,0.14 0.47,0.34 0.51,0.62 0.08,0.73 0.04,1.46 0.05,2.18 0.72,0.01 1.45,-0.03 2.17,0.06 0.47,0.1 0.85,0.57 0.8,1.07 -0.06,0.42 -0.31,0.87 -0.77,0.92 -0.7,0.06 -1.4,0.03 -2.1,0.03 0.05,0.33 0.02,0.78 0.35,0.98 0.74,0.39 1.78,-0.15 2.35,0.59 0.42,0.57 0.09,1.42 -0.57,1.6 -1.18,0.2 -2.6,0.08 -3.43,-0.9 -0.6,-0.79 -0.7,-1.81 -0.82,-2.76 -0.06,-1.03 -0.16,-2.06 -0.08,-3.09 -0.02,-0.55 0.12,-1.11 0.67,-1.32 z"
   id="path10"
   inkscape:connector-curvature="0"
   style="fill:#40c5e9" />
	<path
   class="st0"
   d="m 292.27,403.15 c 0.46,-0.16 0.95,0.17 1.15,0.57 0.1,0.77 0.01,1.54 0.06,2.31 0.04,0.53 0.56,1.02 1.11,0.9 0.37,-0.03 0.66,-0.34 0.72,-0.69 0.06,-0.73 0.01,-1.47 0.04,-2.21 0.05,-0.43 0.4,-0.81 0.82,-0.9 0.31,-0.09 0.62,0.1 0.87,0.26 0.59,0.85 0.14,1.96 0.33,2.91 0.11,0.31 0.37,0.6 0.72,0.62 0.52,0.11 1.15,-0.33 1.03,-0.9 0.07,-0.77 -0.1,-1.57 0.14,-2.31 0.19,-0.44 0.77,-0.76 1.22,-0.53 0.31,0.13 0.58,0.39 0.62,0.74 0.08,0.77 0.07,1.54 0.03,2.31 -0.11,1.43 -1.41,2.67 -2.85,2.65 -0.72,0.04 -1.37,-0.29 -1.93,-0.69 -0.47,0.28 -0.92,0.6 -1.47,0.66 -1.37,0.24 -2.83,-0.68 -3.19,-2.03 -0.19,-0.85 -0.14,-1.73 -0.12,-2.59 -0.07,-0.45 0.19,-1.01 0.7,-1.08 z"
   id="path12"
   inkscape:connector-curvature="0"
   style="fill:#40c5e9" />
	<path
   class="st0"
   d="m 324.21,403.21 c 0.61,-0.06 1.22,-0.07 1.83,-0.04 0.61,0.02 1.12,0.72 0.87,1.3 -0.15,0.27 -0.36,0.57 -0.69,0.59 -0.59,0.05 -1.17,0.03 -1.76,0.06 -0.38,0.03 -0.7,0.33 -0.76,0.71 -0.06,0.71 -0.01,1.42 -0.04,2.14 -0.03,0.59 -0.72,1.12 -1.29,0.87 -0.27,-0.15 -0.57,-0.37 -0.6,-0.69 -0.07,-0.82 -0.07,-1.65 -0.01,-2.47 0.11,-1.24 1.2,-2.35 2.45,-2.47 z"
   id="path14"
   inkscape:connector-curvature="0"
   style="fill:#40c5e9" />
	<path
   class="st0"
   d="m 302.58,403.49 c 0.53,-0.1 1.08,0.33 1.15,0.85 0.09,1.18 0.06,2.37 0.03,3.55 -0.03,0.47 -0.4,0.9 -0.87,0.97 -0.61,0.16 -1.26,-0.42 -1.17,-1.04 -0.03,-1.19 -0.05,-2.38 0.01,-3.57 0.04,-0.42 0.45,-0.71 0.85,-0.76 z m -0.07,-2.8 c 0.73,-0.19 1.45,0.62 1.19,1.33 -0.16,0.72 -1.17,0.97 -1.67,0.45 -0.65,-0.48 -0.32,-1.68 0.48,-1.78 z"
   id="path16"
   inkscape:connector-curvature="0"
   style="fill:#40c5e9" />
	<path
   class="st0"
   d="m 316.88,403.39 c 1.2,-0.39 2.63,-0.29 3.63,0.52 0.64,0.52 1.01,1.36 0.86,2.18 -0.11,0.35 -0.51,0.49 -0.85,0.5 -1.09,0.06 -2.18,0 -3.27,0.04 0.31,0.64 1.12,0.69 1.74,0.58 0.54,-0.1 1,-0.52 1.56,-0.42 0.41,0.04 0.67,0.54 0.49,0.9 -0.26,0.61 -0.9,0.94 -1.52,1.06 -1.08,0.28 -2.33,0.24 -3.21,-0.5 -1.06,-0.72 -1.43,-2.21 -0.95,-3.37 0.26,-0.69 0.82,-1.25 1.52,-1.49 z"
   id="path18"
   inkscape:connector-curvature="0"
   style="fill:#40c5e9" />
	<path
   class="st1"
   d="m 317.27,405.24 c 0.01,-0.01 0.01,-0.02 0.02,-0.04 v 0 c 0.15,-0.28 0.4,-0.45 0.68,-0.52 0.4,-0.14 0.85,-0.06 1.19,0.29 0.05,0.05 0.1,0.1 0.14,0.16 0.03,0.04 0.05,0.08 0.08,0.12 h -0.01 l 0.01,0.02 -1.21,-0.01 c -0.3,-0.01 -0.6,-0.02 -0.9,-0.02 z"
   id="path20"
   inkscape:connector-curvature="0"
   style="fill:#ffffff" />
</g>
</svg>